<?xml version="1.0" encoding="utf-8"?>
<!-- Generator: Adobe Illustrator 14.0.0, SVG Export Plug-In . SVG Version: 6.00 Build 43363)  -->
<!DOCTYPE svg PUBLIC "-//W3C//DTD SVG 1.1//EN" "http://www.w3.org/Graphics/SVG/1.1/DTD/svg11.dtd">
<svg version="1.1" id="Layer_1" xmlns="http://www.w3.org/2000/svg" xmlns:xlink="http://www.w3.org/1999/xlink" x="0px" y="0px"
	 width="885.878px" height="2077.988px" viewBox="0 0 885.878 2077.988" enable-background="new 0 0 885.878 2077.988"
	 xml:space="preserve">
<rect x="84.266" y="113.51" fill="none" width="926.72" height="210.145"/>
<text transform="matrix(1 0 0 1 84.2666 237.3682)" font-family="'TimesNewRomanPSMT'" font-size="178.2158">[Li t]</text>
<rect x="124.533" y="652.208" fill="none" width="435.482" height="167.608"/>
<text transform="matrix(1 0 0 1 124.5332 776.0664)" font-family="'TimesNewRomanPSMT'" font-size="178.2158">L-i- t</text>
<rect x="136.488" y="1110.733" fill="none" width="475.877" height="299.434"/>
<text transform="matrix(1 0 0 1 136.4883 1358.4517)" font-family="'TimesNewRomanPSMT'" font-size="356.4316">L</text>
<text transform="matrix(1 0 0 1 326.9893 1354.9214)"><tspan x="0" y="0" font-family="'TimesNewRomanPSMT'" font-size="32.0788">  </tspan><tspan x="16.039" y="0" font-family="'TimesNewRomanPSMT'" font-size="42.7718"> Lots in translation</tspan><tspan x="337.977" y="0" font-family="'TimesNewRomanPSMT'" font-size="32.0788"> </tspan></text>
<text transform="matrix(1 0 0 1 415.4277 862.5342)"><tspan x="0" y="0" font-family="'TimesNewRomanPSMT'" font-size="32.0788">  </tspan><tspan x="16.039" y="0" font-family="'TimesNewRomanPSMT'" font-size="42.7718"> Lots in translation</tspan><tspan x="337.977" y="0" font-family="'TimesNewRomanPSMT'" font-size="32.0788"> </tspan></text>
<line stroke="#000000" stroke-width="2" x1="78.917" y1="806.819" x2="806.631" y2="807.88"/>
<text transform="matrix(1 0 0 1 237.9692 1329.9712)" font-family="'TimesNewRomanPSMT'" font-size="133.6618">it</text>
<rect x="78.26" y="1741.04" fill="none" width="183.125" height="336.948"/>
<text transform="matrix(1 0 0 1 78.2607 1893.0581)" font-family="'TimesNewRomanPSMT'" font-size="218.7335">L</text>
<text transform="matrix(1 0 0 1 242.8198 1873.6753)" font-family="'TimesNewRomanPSMT'" font-size="145.8223">i</text>
<text transform="matrix(1 0 0 1 487.8477 1991.439)"><tspan x="0" y="0" font-family="'TimesNewRomanPSMT'" font-size="32.0788">  </tspan><tspan x="16.039" y="0" font-family="'TimesNewRomanPSMT'" font-size="42.7718"> Lots in translation</tspan><tspan x="337.977" y="0" font-family="'TimesNewRomanPSMT'" font-size="32.0788"> </tspan></text>
<text transform="matrix(1 0 0 1 470.1211 211.8525)"><tspan x="0" y="0" font-family="'TimesNewRomanPSMT'" font-size="32.0788">  </tspan><tspan x="16.039" y="0" font-family="'TimesNewRomanPSMT'" font-size="42.7718"> Lots in translation</tspan><tspan x="337.977" y="0" font-family="'TimesNewRomanPSMT'" font-size="32.0788"> </tspan></text>
<rect x="297.902" y="1744.258" fill="none" width="153.048" height="176.718"/>
<text transform="matrix(1 0 0 1 297.9023 1896.2769)" font-family="'TimesNewRomanPSMT'" font-size="218.7335">T</text>
<line stroke="#000000" stroke-width="2" x1="315.948" y1="1929.231" x2="817.426" y2="1929.231"/>
<g>
	<g>
		<path fill="#FFFFFF" d="M322.553,599.06c0,8.911,0,17.821,0,26.732c0,6.053,11.738,4.259,11.738-0.903c0-8.911,0-17.821,0-26.732
			C334.291,592.103,322.553,593.897,322.553,599.06L322.553,599.06z"/>
	</g>
</g>
<g>
	<g>
		<path fill="#FFFFFF" d="M326.19,603.725c0.538,1.182,0.834,2.126,0.52,3.392c-0.338,1.359-1.271,2.61-1.903,3.841
			c-2.545,4.958,9.064,3.621,10.795,0.25c1.794-3.495,3.988-6.616,2.181-10.588c-1.056-2.319-4.593-1.883-6.574-1.352
			C329.888,599.622,325.168,601.477,326.19,603.725L326.19,603.725z"/>
	</g>
</g>
<g>
	<g>
		<path fill="#FFFFFF" d="M302.95,682.826c-1.544,7.251-4.5,13.68-10.438,18.333c3.047,0.019,6.094,0.039,9.141,0.058
			c-2.53-3.133-3.177-7.861-4.86-11.49c-2.174-4.684-10.746-2.79-11.663,2.01c-0.729,3.82-6.736,6.134-5.143,10.98
			c0.947,2.883,4.435,2.803,6.844,2.361c4.539-0.831,5.515-5.149,6.469-8.909c1.405-5.536-10.458-4.119-11.734,0.914
			c-0.29,1.142-0.527,2.416-1.17,3.419c1.495-1.093,2.989-2.186,4.484-3.279c-0.049,0.009-0.098,0.018-0.146,0.027
			c2.281,0.787,4.563,1.574,6.845,2.361c-0.303-0.92,4.867-6.595,5.286-8.789c-3.888,0.67-7.775,1.34-11.663,2.01
			c2,4.311,2.804,9.71,5.833,13.461c2.115,2.619,6.778,1.909,9.141,0.058c8.035-6.296,12.406-14.557,14.511-24.439
			C315.89,676.254,304.034,677.736,302.95,682.826L302.95,682.826z"/>
	</g>
</g>
<g>
	<g>
		<path fill="#FFFFFF" d="M308.868,703.877c5.169-9.042,7.41-18.995,7.526-29.363c0.054-4.832-11.547-2.353-11.59,1.454
			c-0.108,9.639-1.903,19.226-6.729,27.666C295.348,708.405,306.988,707.164,308.868,703.877L308.868,703.877z"/>
	</g>
</g>
<g>
	<g>
		<path fill="#FFFFFF" d="M315.845,697.966c5.773-6.079,9.245-14.089,9.462-22.496c0.046-1.783-11.505-0.256-11.592,3.105
			c-0.189,7.376-3.273,14.919-8.36,20.276c-1.78,1.875,1.566,1.976,2.731,1.877C310.494,700.527,314.087,699.816,315.845,697.966
			L315.845,697.966z"/>
	</g>
</g>
<g>
	<g>
		<path fill="#FFFFFF" d="M275.534,442.355c6.805,0,8.738-8.985,0.895-8.985C269.624,433.37,267.69,442.355,275.534,442.355
			L275.534,442.355z"/>
	</g>
</g>
</svg>
