<?xml version="1.0" encoding="utf-8"?>
<!-- Generator: Adobe Illustrator 14.0.0, SVG Export Plug-In . SVG Version: 6.00 Build 43363)  -->
<!DOCTYPE svg PUBLIC "-//W3C//DTD SVG 1.1//EN" "http://www.w3.org/Graphics/SVG/1.1/DTD/svg11.dtd">
<svg version="1.1" id="Layer_1" xmlns="http://www.w3.org/2000/svg" xmlns:xlink="http://www.w3.org/1999/xlink" x="0px" y="0px"
	 width="917px" height="1990.048px" viewBox="0 0 917 1990.048" enable-background="new 0 0 917 1990.048" xml:space="preserve">
<rect x="235.328" y="103.575" fill="none" width="311.224" height="163.911"/>
<text transform="matrix(1 0 0 1 235.3271 224.7021)" font-family="'TimesNewRomanPSMT'" font-size="174.2852">Li t</text>
<text transform="matrix(1 0 0 1 252.4438 302.0596)"><tspan x="0" y="0" font-family="'TimesNewRomanPSMT'" font-size="31.3713">  </tspan><tspan x="15.686" y="0" font-family="'TimesNewRomanPSMT'" font-size="41.8284"> Lots in translation</tspan><tspan x="330.522" y="0" font-family="'TimesNewRomanPSMT'" font-size="31.3713"> </tspan></text>
<text transform="matrix(0.9705 0 0 1 501.9434 226.2725)"><tspan x="0" y="0" font-family="'TimesNewRomanPSMT'" font-size="31.3713">(noun)  </tspan><tspan x="0" y="150.583" font-family="'TimesNewRomanPSMT'" font-size="31.3713"> </tspan></text>
<line stroke="#000000" stroke-width="2" x1="102.996" y1="252.008" x2="814.66" y2="253.045"/>
<rect x="238.813" y="1223.104" fill="none" width="311.224" height="163.911"/>
<text transform="matrix(1 0 0 1 238.813 1344.2295)" font-family="'TimesNewRomanPSMT'" font-size="174.2852">Li t</text>
<text transform="matrix(1 0 0 1 255.9297 1421.5879)"><tspan x="0" y="0" font-family="'TimesNewRomanPSMT'" font-size="31.3713">  </tspan><tspan x="15.686" y="0" font-family="'TimesNewRomanPSMT'" font-size="41.8284"> Lots in translation</tspan><tspan x="330.522" y="0" font-family="'TimesNewRomanPSMT'" font-size="31.3713"> </tspan></text>
<text transform="matrix(0.9705 0 0 1 514.1436 1311.0156)"><tspan x="0" y="0" font-family="'TimesNewRomanPSMT'" font-size="31.3713">erature  </tspan><tspan x="0" y="150.582" font-family="'TimesNewRomanPSMT'" font-size="31.3713"> </tspan></text>
<line stroke="#000000" stroke-width="2" x1="106.481" y1="1371.536" x2="818.146" y2="1372.574"/>
<text transform="matrix(1 0 0 1 427.7363 1876.5645)"><tspan x="0" y="0" font-family="'TimesNewRomanPSMT'" font-size="31.3713">  </tspan><tspan x="15.686" y="0" font-family="'TimesNewRomanPSMT'" font-size="41.8284"> Lots in translation</tspan><tspan x="330.522" y="0" font-family="'TimesNewRomanPSMT'" font-size="31.3713"> </tspan></text>
<rect x="238.148" y="637.992" fill="none" width="311.224" height="163.91"/>
<text transform="matrix(1 0 0 1 238.1479 759.1182)" font-family="'TimesNewRomanPSMT'" font-size="174.2852">Li t</text>
<text transform="matrix(1 0 0 1 255.2632 836.4746)"><tspan x="0" y="0" font-family="'TimesNewRomanPSMT'" font-size="31.3713">  </tspan><tspan x="15.686" y="0" font-family="'TimesNewRomanPSMT'" font-size="41.8284"> Lots in Translation</tspan><tspan x="344.452" y="0" font-family="'TimesNewRomanPSMT'" font-size="31.3713"> </tspan></text>
<text transform="matrix(0.9705 0 0 1 518.249 684.957)"><tspan x="0" y="0" font-family="'TimesNewRomanPSMT'" font-size="31.3713">(noun)  </tspan><tspan x="0" y="75.291" font-family="'TimesNewRomanPSMT'" font-size="31.3713">Pronounciation:  /lIt/</tspan><tspan x="0" y="150.582" font-family="'TimesNewRomanPSMT'" font-size="31.3713"> </tspan></text>
<line stroke="#000000" stroke-width="2" x1="105.816" y1="786.424" x2="817.48" y2="787.462"/>
<rect x="160.325" y="1719.709" fill="none" width="167.314" height="156.856"/>
<text transform="matrix(1 0 0 1 160.3242 1840.835)" font-family="'TimesNewRomanPSMT'" font-size="174.2852">L</text>
<rect x="325.309" y="1678.534" fill="none" width="156.856" height="167.313"/>
<text transform="matrix(4.489659e-011 -1 1 4.489659e-011 446.4346 1845.8457)" font-family="'TimesNewRomanPSMT'" font-size="174.2852">T</text>
<text transform="matrix(1 0 0 1 270.0625 1840.6191)" font-family="'TimesNewRomanPSMT'" font-size="130.7139">i</text>
<line stroke="#000000" stroke-width="2" x1="359.91" y1="1837.365" x2="810.696" y2="1837.365"/>
</svg>
